<svg width="175" height="39" viewBox="0 0 175 39" fill="none" xmlns="http://www.w3.org/2000/svg">
<g clip-path="url(#clip0_755_4)">
<path d="M27.0676 36.4762L22.9342 26.104C22.4081 24.7838 22.7024 23.3119 23.4602 22.1686C24.1053 21.1958 25.3391 20.3178 26.7357 20.3367L37.9522 20.4694C37.4136 27.4305 33.4869 33.362 27.0738 36.4825L27.0676 36.4762Z" fill="#DC3639"/>
<path d="M24.4432 37.4997C17.8861 39.4389 10.9845 37.9482 5.91797 33.3495L14.0783 25.4725C15.2369 24.3544 16.9905 24.2091 18.2305 24.9734C19.3265 25.5988 20.078 26.3505 20.529 27.5065L24.4432 37.4997Z" fill="#DC3639"/>
<path d="M10.3961 25.1819L4.03313 31.3724C-0.26312 26.3253 -1.5282 18.7641 0.657504 12.542L10.6591 16.9259C12.0119 17.5196 12.7571 18.922 12.9262 20.1222C13.1454 21.6887 12.4315 22.8889 11.4357 24.0196L10.4023 25.1883L10.3961 25.1819Z" fill="#DC3639"/>
<path d="M17.4421 10.2426C17.4108 11.8218 16.7344 13.0915 15.6697 13.8305C14.436 14.6896 12.9267 14.9044 11.5488 14.298L1.75391 9.97096C4.89781 3.88787 10.9664 -0.0285519 17.6613 -0.375977L17.4421 10.2489V10.2426Z" fill="#DC3639"/>
<path d="M38.2532 17.6901C35.5039 17.709 32.8359 17.4943 30.2369 16.7173C26.2475 15.5929 23.3667 12.7188 22.1392 8.73285C21.1434 5.72605 20.8991 2.64344 20.9054 -0.679199L34.7836 -0.666566C36.7689 -0.666566 38.2344 1.01371 38.2532 2.9277V17.6901ZM36.8002 16.212V2.94665C36.7689 1.72751 35.8483 0.779984 34.6145 0.779984H22.3646C22.4586 3.49621 22.7341 6.04821 23.5984 8.53071C24.7257 11.8849 27.1932 14.3169 30.5751 15.2897C32.6105 15.9088 34.6333 16.1614 36.8065 16.2183L36.8002 16.212Z" fill="#DC3639"/>
<g clip-path="url(#clip1_755_4)">
<path d="M82.9039 33.8143V8.99284H73.7041V3.84009H98.4267V8.99284H89.2269V33.8143H82.9039Z" fill="#F7F7F7"/>
<path d="M100.753 33.8143V3.84009H123.077V8.99284H107.118V15.732H117.669V20.8847H107.118V28.6556H123.253V33.8083H100.753V33.8143Z" fill="#F7F7F7"/>
<path d="M125.936 33.8143V3.84009H148.26V8.99284H132.301V15.732H142.851V20.8847H132.301V28.6556H148.435V33.8083H125.936V33.8143Z" fill="#F7F7F7"/>
<path d="M173.885 29.7112C173.461 28.3216 172.825 26.9798 171.965 25.6737C171.105 24.3736 170.033 23.145 168.737 21.9821C168.458 21.7316 168.174 21.493 167.871 21.2604C169.209 20.7535 170.36 20.0736 171.335 19.2327C172.377 18.3322 173.176 17.3303 173.733 16.227C174.285 15.1296 174.557 13.9905 174.557 12.8157C174.557 10.9251 174.085 9.31489 173.14 7.98495C172.195 6.65502 170.899 5.62924 169.24 4.91358C167.58 4.19792 165.69 3.84009 163.571 3.84009H151.228V33.8143H157.551V22.1789H160.724C161.081 22.4055 161.427 22.6381 161.76 22.8826C163.11 23.8726 164.237 24.9699 165.139 26.1687C166.042 27.3734 166.744 28.6258 167.253 29.9259C167.762 31.232 168.046 32.5261 168.107 33.8143H174.606C174.545 32.4665 174.303 31.1008 173.885 29.7112ZM165.575 16.5073C164.818 16.8532 163.934 17.0261 162.917 17.0261H157.551V8.99284H163.571C164.413 8.99284 165.17 9.15386 165.836 9.46398C166.508 9.78007 167.035 10.2274 167.429 10.7999C167.822 11.3724 168.016 12.0404 168.016 12.8157C168.016 13.6446 167.798 14.3841 167.362 15.0282C166.926 15.6723 166.332 16.1673 165.575 16.5073Z" fill="#F7F7F7"/>
<path d="M72.4142 25.441C72.4142 27.1825 71.9176 28.7331 70.9304 30.0749C69.9432 31.4228 68.5926 32.4664 66.8725 33.2119C65.1585 33.9574 63.1962 34.3271 60.9856 34.3271C58.5449 34.3271 56.4372 33.8679 54.6626 32.9555C52.8941 32.037 51.5254 30.7369 50.5685 29.0432C50.1748 28.3514 49.8659 27.6119 49.6358 26.8187L55.5348 24.8983C55.7407 25.9957 56.1586 26.8902 56.7824 27.588C57.7272 28.6436 59.1263 29.1744 60.9856 29.1744C62.4695 29.1744 63.6565 28.8524 64.5408 28.2083C65.4311 27.5642 65.8732 26.6398 65.8732 25.441C65.8732 24.5822 65.5825 23.8904 65.0011 23.3776C64.4197 22.8647 63.6384 22.4412 62.6693 22.1132C61.6942 21.7792 60.6343 21.4751 59.4836 21.1888C58.3329 20.9026 57.1821 20.5567 56.0193 20.1571C54.8564 19.7575 53.7845 19.2387 52.8094 18.6124C51.8403 17.9803 51.059 17.1453 50.4776 16.1017C49.8962 15.052 49.6055 13.7281 49.6055 12.1298C49.6055 10.5315 50.0658 8.96893 50.9803 7.639C51.8948 6.30906 53.1849 5.25943 54.8383 4.48413C56.4978 3.70883 58.4419 3.32715 60.6828 3.32715C62.7481 3.32715 64.6437 3.70883 66.3759 4.48413C68.102 5.25943 69.5071 6.37467 70.5791 7.83581C71.0212 8.43815 71.3846 9.09417 71.6511 9.80387L65.6915 11.7421C65.5583 11.3127 65.3645 10.9251 65.1101 10.5792C64.6013 9.89333 63.9594 9.37447 63.1902 9.01664C62.421 8.65881 61.5852 8.4799 60.6828 8.4799C59.3746 8.4799 58.2905 8.77809 57.4365 9.38044C56.5765 9.98278 56.1465 10.8416 56.1465 11.9568C56.1465 12.756 56.4372 13.4001 57.0186 13.8891C57.6 14.3722 58.3813 14.7658 59.3504 15.0699C60.3255 15.3681 61.3975 15.6544 62.5603 15.9287C63.7232 16.1971 64.8739 16.5311 66.0246 16.9128C67.1754 17.3004 68.2352 17.8312 69.2103 18.5051C70.1794 19.179 70.9607 20.0736 71.5421 21.1888C72.1235 22.3041 72.4142 23.7235 72.4142 25.441Z" fill="#F7F7F7"/>
</g>
</g>
<defs>
<clipPath id="clip0_755_4">
<rect width="175" height="39" fill="white"/>
</clipPath>
<clipPath id="clip1_755_4">
<rect width="125" height="31" fill="white" transform="translate(49.6055 3.32715)"/>
</clipPath>
</defs>
</svg>
